<mxfile host="Electron" modified="2024-02-29T06:12:10.046Z" agent="Mozilla/5.0 (X11; Linux x86_64) AppleWebKit/537.36 (KHTML, like Gecko) draw.io/23.1.5 Chrome/120.0.6099.109 Electron/28.1.0 Safari/537.36" etag="IsEdDjOVEjgdiXhdadZP" version="23.1.5" type="device">
  <diagram name="Page-1" id="okQUsLcCIn6qNMJXYvbM">
    <mxGraphModel dx="5430" dy="2303" grid="1" gridSize="10" guides="1" tooltips="1" connect="1" arrows="1" fold="1" page="1" pageScale="1" pageWidth="850" pageHeight="1100" math="0" shadow="0">
      <root>
        <mxCell id="0" />
        <mxCell id="1" parent="0" />
        <mxCell id="x1gjESqDVY6kyEeMGUOX-54" value="&lt;font style=&quot;font-size: 36px;&quot;&gt;Leg&lt;/font&gt;" style="rounded=1;whiteSpace=wrap;html=1;verticalAlign=top;" parent="1" vertex="1">
          <mxGeometry x="-2550" y="-160" width="1260" height="1020" as="geometry" />
        </mxCell>
        <mxCell id="x1gjESqDVY6kyEeMGUOX-2" value="&lt;font style=&quot;font-size: 24px;&quot;&gt;logical disk&lt;/font&gt;" style="rounded=0;whiteSpace=wrap;html=1;" parent="1" vertex="1">
          <mxGeometry x="-2490" y="740" width="240" height="60" as="geometry" />
        </mxCell>
        <mxCell id="x1gjESqDVY6kyEeMGUOX-3" value="&lt;font style=&quot;font-size: 24px;&quot;&gt;raid1&lt;/font&gt;" style="rounded=0;whiteSpace=wrap;html=1;" parent="1" vertex="1">
          <mxGeometry x="-2310" y="500" width="180" height="60" as="geometry" />
        </mxCell>
        <mxCell id="x1gjESqDVY6kyEeMGUOX-4" value="&lt;span style=&quot;font-size: 24px;&quot;&gt;raid1&lt;br&gt;meta&lt;br&gt;&lt;/span&gt;" style="rounded=0;whiteSpace=wrap;html=1;" parent="1" vertex="1">
          <mxGeometry x="-2490" y="620" width="60" height="60" as="geometry" />
        </mxCell>
        <mxCell id="x1gjESqDVY6kyEeMGUOX-5" value="&lt;font style=&quot;font-size: 24px;&quot;&gt;raid1&lt;br&gt;data&lt;br&gt;&lt;/font&gt;" style="rounded=0;whiteSpace=wrap;html=1;" parent="1" vertex="1">
          <mxGeometry x="-2430" y="620" width="180" height="60" as="geometry" />
        </mxCell>
        <mxCell id="x1gjESqDVY6kyEeMGUOX-6" value="&lt;font style=&quot;font-size: 24px;&quot;&gt;logical disk&lt;/font&gt;" style="rounded=0;whiteSpace=wrap;html=1;" parent="1" vertex="1">
          <mxGeometry x="-2190" y="740" width="240" height="60" as="geometry" />
        </mxCell>
        <mxCell id="x1gjESqDVY6kyEeMGUOX-7" value="&lt;span style=&quot;font-size: 24px;&quot;&gt;raid1&lt;br&gt;meta&lt;br&gt;&lt;/span&gt;" style="rounded=0;whiteSpace=wrap;html=1;" parent="1" vertex="1">
          <mxGeometry x="-2190" y="620" width="60" height="60" as="geometry" />
        </mxCell>
        <mxCell id="x1gjESqDVY6kyEeMGUOX-8" value="&lt;font style=&quot;font-size: 24px;&quot;&gt;raid1&lt;br&gt;data&lt;br&gt;&lt;/font&gt;" style="rounded=0;whiteSpace=wrap;html=1;" parent="1" vertex="1">
          <mxGeometry x="-2130" y="620" width="180" height="60" as="geometry" />
        </mxCell>
        <mxCell id="x1gjESqDVY6kyEeMGUOX-9" value="&lt;font style=&quot;font-size: 24px;&quot;&gt;logical disk&lt;/font&gt;" style="rounded=0;whiteSpace=wrap;html=1;" parent="1" vertex="1">
          <mxGeometry x="-1890" y="740" width="240" height="60" as="geometry" />
        </mxCell>
        <mxCell id="x1gjESqDVY6kyEeMGUOX-10" value="&lt;font style=&quot;font-size: 24px;&quot;&gt;raid1&lt;/font&gt;" style="rounded=0;whiteSpace=wrap;html=1;" parent="1" vertex="1">
          <mxGeometry x="-1710" y="500" width="180" height="60" as="geometry" />
        </mxCell>
        <mxCell id="x1gjESqDVY6kyEeMGUOX-11" value="&lt;span style=&quot;font-size: 24px;&quot;&gt;raid1&lt;br&gt;meta&lt;br&gt;&lt;/span&gt;" style="rounded=0;whiteSpace=wrap;html=1;" parent="1" vertex="1">
          <mxGeometry x="-1890" y="620" width="60" height="60" as="geometry" />
        </mxCell>
        <mxCell id="x1gjESqDVY6kyEeMGUOX-12" value="&lt;font style=&quot;font-size: 24px;&quot;&gt;raid1&lt;br&gt;data&lt;br&gt;&lt;/font&gt;" style="rounded=0;whiteSpace=wrap;html=1;" parent="1" vertex="1">
          <mxGeometry x="-1830" y="620" width="180" height="60" as="geometry" />
        </mxCell>
        <mxCell id="x1gjESqDVY6kyEeMGUOX-13" value="&lt;font style=&quot;font-size: 24px;&quot;&gt;logical disk&lt;/font&gt;" style="rounded=0;whiteSpace=wrap;html=1;" parent="1" vertex="1">
          <mxGeometry x="-1590" y="740" width="240" height="60" as="geometry" />
        </mxCell>
        <mxCell id="x1gjESqDVY6kyEeMGUOX-14" value="&lt;span style=&quot;font-size: 24px;&quot;&gt;raid1&lt;br&gt;meta&lt;br&gt;&lt;/span&gt;" style="rounded=0;whiteSpace=wrap;html=1;" parent="1" vertex="1">
          <mxGeometry x="-1590" y="620" width="60" height="60" as="geometry" />
        </mxCell>
        <mxCell id="x1gjESqDVY6kyEeMGUOX-15" value="&lt;font style=&quot;font-size: 24px;&quot;&gt;raid1&lt;br&gt;data&lt;br&gt;&lt;/font&gt;" style="rounded=0;whiteSpace=wrap;html=1;" parent="1" vertex="1">
          <mxGeometry x="-1530" y="620" width="180" height="60" as="geometry" />
        </mxCell>
        <mxCell id="x1gjESqDVY6kyEeMGUOX-16" value="&lt;font style=&quot;font-size: 24px;&quot;&gt;thin&lt;br&gt;meta&lt;br&gt;&lt;/font&gt;" style="rounded=0;whiteSpace=wrap;html=1;" parent="1" vertex="1">
          <mxGeometry x="-2310" y="380" width="60" height="60" as="geometry" />
        </mxCell>
        <mxCell id="x1gjESqDVY6kyEeMGUOX-17" value="&lt;font style=&quot;font-size: 24px;&quot;&gt;thin&lt;br&gt;data&lt;br&gt;&lt;/font&gt;" style="rounded=0;whiteSpace=wrap;html=1;" parent="1" vertex="1">
          <mxGeometry x="-2250" y="380" width="120" height="60" as="geometry" />
        </mxCell>
        <mxCell id="x1gjESqDVY6kyEeMGUOX-18" value="&lt;font style=&quot;font-size: 24px;&quot;&gt;thin&lt;br&gt;meta&lt;br&gt;&lt;/font&gt;" style="rounded=0;whiteSpace=wrap;html=1;" parent="1" vertex="1">
          <mxGeometry x="-1710" y="380" width="60" height="60" as="geometry" />
        </mxCell>
        <mxCell id="x1gjESqDVY6kyEeMGUOX-19" value="&lt;font style=&quot;font-size: 24px;&quot;&gt;thin&lt;br&gt;data&lt;br&gt;&lt;/font&gt;" style="rounded=0;whiteSpace=wrap;html=1;" parent="1" vertex="1">
          <mxGeometry x="-1650" y="380" width="120" height="60" as="geometry" />
        </mxCell>
        <mxCell id="x1gjESqDVY6kyEeMGUOX-20" value="&lt;font style=&quot;font-size: 24px;&quot;&gt;thin&lt;br&gt;meta&lt;br&gt;&lt;/font&gt;" style="rounded=0;whiteSpace=wrap;html=1;" parent="1" vertex="1">
          <mxGeometry x="-2070" y="260" width="120" height="60" as="geometry" />
        </mxCell>
        <mxCell id="x1gjESqDVY6kyEeMGUOX-21" value="&lt;font style=&quot;font-size: 24px;&quot;&gt;thin&lt;br&gt;data&lt;br&gt;&lt;/font&gt;" style="rounded=0;whiteSpace=wrap;html=1;" parent="1" vertex="1">
          <mxGeometry x="-1890" y="260" width="240" height="60" as="geometry" />
        </mxCell>
        <mxCell id="x1gjESqDVY6kyEeMGUOX-22" value="&lt;font style=&quot;font-size: 24px;&quot;&gt;thin pool&lt;br&gt;&lt;/font&gt;" style="rounded=0;whiteSpace=wrap;html=1;" parent="1" vertex="1">
          <mxGeometry x="-2040" y="140" width="240" height="60" as="geometry" />
        </mxCell>
        <mxCell id="x1gjESqDVY6kyEeMGUOX-23" value="&lt;font style=&quot;font-size: 24px;&quot;&gt;thin dev&lt;br&gt;&lt;/font&gt;" style="rounded=0;whiteSpace=wrap;html=1;" parent="1" vertex="1">
          <mxGeometry x="-2160" y="20" width="480" height="60" as="geometry" />
        </mxCell>
        <mxCell id="x1gjESqDVY6kyEeMGUOX-25" value="" style="endArrow=classic;html=1;rounded=0;strokeWidth=5;strokeColor=#808080;exitX=0.5;exitY=0;exitDx=0;exitDy=0;entryX=0.5;entryY=1;entryDx=0;entryDy=0;" parent="1" source="x1gjESqDVY6kyEeMGUOX-16" target="x1gjESqDVY6kyEeMGUOX-20" edge="1">
          <mxGeometry width="50" height="50" relative="1" as="geometry">
            <mxPoint x="-2260" y="350" as="sourcePoint" />
            <mxPoint x="-2210" y="300" as="targetPoint" />
          </mxGeometry>
        </mxCell>
        <mxCell id="x1gjESqDVY6kyEeMGUOX-26" value="" style="endArrow=classic;html=1;rounded=0;strokeWidth=5;strokeColor=#808080;exitX=0.5;exitY=0;exitDx=0;exitDy=0;entryX=0.5;entryY=1;entryDx=0;entryDy=0;" parent="1" source="x1gjESqDVY6kyEeMGUOX-3" target="x1gjESqDVY6kyEeMGUOX-17" edge="1">
          <mxGeometry width="50" height="50" relative="1" as="geometry">
            <mxPoint x="-2070" y="480" as="sourcePoint" />
            <mxPoint x="-2020" y="430" as="targetPoint" />
          </mxGeometry>
        </mxCell>
        <mxCell id="x1gjESqDVY6kyEeMGUOX-27" value="" style="endArrow=classic;html=1;rounded=0;strokeWidth=5;strokeColor=#808080;exitX=0.5;exitY=0;exitDx=0;exitDy=0;entryX=0.5;entryY=1;entryDx=0;entryDy=0;" parent="1" source="x1gjESqDVY6kyEeMGUOX-18" target="x1gjESqDVY6kyEeMGUOX-20" edge="1">
          <mxGeometry width="50" height="50" relative="1" as="geometry">
            <mxPoint x="-1980" y="420" as="sourcePoint" />
            <mxPoint x="-1930" y="370" as="targetPoint" />
          </mxGeometry>
        </mxCell>
        <mxCell id="x1gjESqDVY6kyEeMGUOX-28" value="" style="endArrow=classic;html=1;rounded=0;strokeWidth=5;strokeColor=#808080;exitX=0.575;exitY=-0.05;exitDx=0;exitDy=0;exitPerimeter=0;entryX=0.5;entryY=1;entryDx=0;entryDy=0;" parent="1" source="x1gjESqDVY6kyEeMGUOX-17" target="x1gjESqDVY6kyEeMGUOX-21" edge="1">
          <mxGeometry width="50" height="50" relative="1" as="geometry">
            <mxPoint x="-1960" y="400" as="sourcePoint" />
            <mxPoint x="-1910" y="350" as="targetPoint" />
          </mxGeometry>
        </mxCell>
        <mxCell id="x1gjESqDVY6kyEeMGUOX-29" value="" style="endArrow=classic;html=1;rounded=0;strokeWidth=5;strokeColor=#808080;exitX=0.5;exitY=0;exitDx=0;exitDy=0;entryX=0.5;entryY=1;entryDx=0;entryDy=0;" parent="1" source="x1gjESqDVY6kyEeMGUOX-19" target="x1gjESqDVY6kyEeMGUOX-21" edge="1">
          <mxGeometry width="50" height="50" relative="1" as="geometry">
            <mxPoint x="-1430" y="410" as="sourcePoint" />
            <mxPoint x="-1380" y="360" as="targetPoint" />
          </mxGeometry>
        </mxCell>
        <mxCell id="x1gjESqDVY6kyEeMGUOX-30" value="" style="endArrow=classic;html=1;rounded=0;strokeWidth=5;strokeColor=#808080;exitX=0.5;exitY=0;exitDx=0;exitDy=0;entryX=0.5;entryY=1;entryDx=0;entryDy=0;" parent="1" source="x1gjESqDVY6kyEeMGUOX-2" target="x1gjESqDVY6kyEeMGUOX-5" edge="1">
          <mxGeometry width="50" height="50" relative="1" as="geometry">
            <mxPoint x="-2130" y="910" as="sourcePoint" />
            <mxPoint x="-2080" y="860" as="targetPoint" />
          </mxGeometry>
        </mxCell>
        <mxCell id="x1gjESqDVY6kyEeMGUOX-31" value="" style="endArrow=classic;html=1;rounded=0;strokeWidth=5;strokeColor=#808080;exitX=0.5;exitY=0;exitDx=0;exitDy=0;entryX=0.5;entryY=1;entryDx=0;entryDy=0;" parent="1" source="x1gjESqDVY6kyEeMGUOX-4" target="x1gjESqDVY6kyEeMGUOX-3" edge="1">
          <mxGeometry width="50" height="50" relative="1" as="geometry">
            <mxPoint x="-2420" y="550" as="sourcePoint" />
            <mxPoint x="-2370" y="500" as="targetPoint" />
          </mxGeometry>
        </mxCell>
        <mxCell id="x1gjESqDVY6kyEeMGUOX-32" value="" style="endArrow=classic;html=1;rounded=0;strokeWidth=5;strokeColor=#808080;exitX=0.5;exitY=0;exitDx=0;exitDy=0;entryX=0.5;entryY=1;entryDx=0;entryDy=0;" parent="1" source="x1gjESqDVY6kyEeMGUOX-10" target="x1gjESqDVY6kyEeMGUOX-18" edge="1">
          <mxGeometry width="50" height="50" relative="1" as="geometry">
            <mxPoint x="-1420" y="500" as="sourcePoint" />
            <mxPoint x="-1370" y="450" as="targetPoint" />
          </mxGeometry>
        </mxCell>
        <mxCell id="x1gjESqDVY6kyEeMGUOX-33" value="" style="endArrow=classic;html=1;rounded=0;strokeWidth=5;strokeColor=#808080;entryX=0.5;entryY=1;entryDx=0;entryDy=0;exitX=0.5;exitY=0;exitDx=0;exitDy=0;" parent="1" source="x1gjESqDVY6kyEeMGUOX-10" target="x1gjESqDVY6kyEeMGUOX-19" edge="1">
          <mxGeometry width="50" height="50" relative="1" as="geometry">
            <mxPoint x="-1390" y="510" as="sourcePoint" />
            <mxPoint x="-1340" y="460" as="targetPoint" />
          </mxGeometry>
        </mxCell>
        <mxCell id="x1gjESqDVY6kyEeMGUOX-34" value="" style="endArrow=classic;html=1;rounded=0;strokeWidth=5;strokeColor=#808080;exitX=0.5;exitY=0;exitDx=0;exitDy=0;entryX=0.5;entryY=1;entryDx=0;entryDy=0;" parent="1" source="x1gjESqDVY6kyEeMGUOX-3" target="x1gjESqDVY6kyEeMGUOX-16" edge="1">
          <mxGeometry width="50" height="50" relative="1" as="geometry">
            <mxPoint x="-2380" y="510" as="sourcePoint" />
            <mxPoint x="-2330" y="460" as="targetPoint" />
          </mxGeometry>
        </mxCell>
        <mxCell id="x1gjESqDVY6kyEeMGUOX-35" value="" style="endArrow=classic;html=1;rounded=0;strokeWidth=5;strokeColor=#808080;exitX=0.5;exitY=0.033;exitDx=0;exitDy=0;exitPerimeter=0;entryX=0.5;entryY=1;entryDx=0;entryDy=0;" parent="1" source="x1gjESqDVY6kyEeMGUOX-22" target="x1gjESqDVY6kyEeMGUOX-23" edge="1">
          <mxGeometry width="50" height="50" relative="1" as="geometry">
            <mxPoint x="-1765" y="170" as="sourcePoint" />
            <mxPoint x="-1715" y="120" as="targetPoint" />
          </mxGeometry>
        </mxCell>
        <mxCell id="x1gjESqDVY6kyEeMGUOX-36" value="" style="endArrow=classic;html=1;rounded=0;strokeWidth=5;strokeColor=#808080;exitX=0.5;exitY=0;exitDx=0;exitDy=0;entryX=0.5;entryY=1;entryDx=0;entryDy=0;" parent="1" source="x1gjESqDVY6kyEeMGUOX-21" target="x1gjESqDVY6kyEeMGUOX-22" edge="1">
          <mxGeometry width="50" height="50" relative="1" as="geometry">
            <mxPoint x="-1630" y="220" as="sourcePoint" />
            <mxPoint x="-1580" y="170" as="targetPoint" />
          </mxGeometry>
        </mxCell>
        <mxCell id="x1gjESqDVY6kyEeMGUOX-37" value="" style="endArrow=classic;html=1;rounded=0;strokeWidth=5;strokeColor=#808080;exitX=0.5;exitY=0;exitDx=0;exitDy=0;entryX=0.5;entryY=1;entryDx=0;entryDy=0;" parent="1" source="x1gjESqDVY6kyEeMGUOX-20" target="x1gjESqDVY6kyEeMGUOX-22" edge="1">
          <mxGeometry width="50" height="50" relative="1" as="geometry">
            <mxPoint x="-2150" y="230" as="sourcePoint" />
            <mxPoint x="-2100" y="180" as="targetPoint" />
          </mxGeometry>
        </mxCell>
        <mxCell id="x1gjESqDVY6kyEeMGUOX-39" value="" style="endArrow=classic;html=1;rounded=0;strokeWidth=5;strokeColor=#808080;exitX=0.5;exitY=0;exitDx=0;exitDy=0;entryX=0.5;entryY=1;entryDx=0;entryDy=0;" parent="1" source="x1gjESqDVY6kyEeMGUOX-15" target="x1gjESqDVY6kyEeMGUOX-10" edge="1">
          <mxGeometry width="50" height="50" relative="1" as="geometry">
            <mxPoint x="-1420" y="530" as="sourcePoint" />
            <mxPoint x="-1370" y="480" as="targetPoint" />
          </mxGeometry>
        </mxCell>
        <mxCell id="x1gjESqDVY6kyEeMGUOX-40" value="" style="endArrow=classic;html=1;rounded=0;strokeWidth=5;strokeColor=#808080;exitX=0.5;exitY=0;exitDx=0;exitDy=0;entryX=0.5;entryY=1;entryDx=0;entryDy=0;" parent="1" source="x1gjESqDVY6kyEeMGUOX-14" target="x1gjESqDVY6kyEeMGUOX-10" edge="1">
          <mxGeometry width="50" height="50" relative="1" as="geometry">
            <mxPoint x="-1440" y="540" as="sourcePoint" />
            <mxPoint x="-1390" y="490" as="targetPoint" />
          </mxGeometry>
        </mxCell>
        <mxCell id="x1gjESqDVY6kyEeMGUOX-41" value="" style="endArrow=classic;html=1;rounded=0;strokeWidth=5;strokeColor=#808080;exitX=0.5;exitY=0;exitDx=0;exitDy=0;entryX=0.5;entryY=1;entryDx=0;entryDy=0;" parent="1" source="x1gjESqDVY6kyEeMGUOX-12" target="x1gjESqDVY6kyEeMGUOX-10" edge="1">
          <mxGeometry width="50" height="50" relative="1" as="geometry">
            <mxPoint x="-1540" y="575" as="sourcePoint" />
            <mxPoint x="-1490" y="525" as="targetPoint" />
          </mxGeometry>
        </mxCell>
        <mxCell id="x1gjESqDVY6kyEeMGUOX-42" value="" style="endArrow=classic;html=1;rounded=0;strokeWidth=5;strokeColor=#808080;exitX=0.5;exitY=0;exitDx=0;exitDy=0;entryX=0.5;entryY=1;entryDx=0;entryDy=0;" parent="1" source="x1gjESqDVY6kyEeMGUOX-11" target="x1gjESqDVY6kyEeMGUOX-10" edge="1">
          <mxGeometry width="50" height="50" relative="1" as="geometry">
            <mxPoint x="-1870" y="590" as="sourcePoint" />
            <mxPoint x="-1820" y="540" as="targetPoint" />
          </mxGeometry>
        </mxCell>
        <mxCell id="x1gjESqDVY6kyEeMGUOX-43" value="" style="endArrow=classic;html=1;rounded=0;strokeWidth=5;strokeColor=#808080;exitX=0.5;exitY=0;exitDx=0;exitDy=0;entryX=0.5;entryY=1;entryDx=0;entryDy=0;" parent="1" source="x1gjESqDVY6kyEeMGUOX-8" target="x1gjESqDVY6kyEeMGUOX-3" edge="1">
          <mxGeometry width="50" height="50" relative="1" as="geometry">
            <mxPoint x="-2000" y="560" as="sourcePoint" />
            <mxPoint x="-1950" y="510" as="targetPoint" />
          </mxGeometry>
        </mxCell>
        <mxCell id="x1gjESqDVY6kyEeMGUOX-44" value="" style="endArrow=classic;html=1;rounded=0;strokeWidth=5;strokeColor=#808080;exitX=0.5;exitY=0;exitDx=0;exitDy=0;entryX=0.5;entryY=1;entryDx=0;entryDy=0;" parent="1" source="x1gjESqDVY6kyEeMGUOX-7" target="x1gjESqDVY6kyEeMGUOX-3" edge="1">
          <mxGeometry width="50" height="50" relative="1" as="geometry">
            <mxPoint x="-2030" y="555" as="sourcePoint" />
            <mxPoint x="-1980" y="505" as="targetPoint" />
          </mxGeometry>
        </mxCell>
        <mxCell id="x1gjESqDVY6kyEeMGUOX-45" value="" style="endArrow=classic;html=1;rounded=0;strokeWidth=5;strokeColor=#808080;exitX=0.5;exitY=0;exitDx=0;exitDy=0;entryX=0.5;entryY=1;entryDx=0;entryDy=0;" parent="1" source="x1gjESqDVY6kyEeMGUOX-5" target="x1gjESqDVY6kyEeMGUOX-3" edge="1">
          <mxGeometry width="50" height="50" relative="1" as="geometry">
            <mxPoint x="-1980" y="575" as="sourcePoint" />
            <mxPoint x="-1930" y="525" as="targetPoint" />
          </mxGeometry>
        </mxCell>
        <mxCell id="x1gjESqDVY6kyEeMGUOX-47" value="" style="endArrow=classic;html=1;rounded=0;strokeWidth=5;strokeColor=#808080;exitX=0.5;exitY=0;exitDx=0;exitDy=0;entryX=0.5;entryY=1;entryDx=0;entryDy=0;" parent="1" source="x1gjESqDVY6kyEeMGUOX-13" target="x1gjESqDVY6kyEeMGUOX-14" edge="1">
          <mxGeometry width="50" height="50" relative="1" as="geometry">
            <mxPoint x="-1325" y="700" as="sourcePoint" />
            <mxPoint x="-1275" y="650" as="targetPoint" />
          </mxGeometry>
        </mxCell>
        <mxCell id="x1gjESqDVY6kyEeMGUOX-48" value="" style="endArrow=classic;html=1;rounded=0;strokeWidth=5;strokeColor=#808080;exitX=0.5;exitY=0;exitDx=0;exitDy=0;entryX=0.5;entryY=1;entryDx=0;entryDy=0;" parent="1" source="x1gjESqDVY6kyEeMGUOX-13" target="x1gjESqDVY6kyEeMGUOX-15" edge="1">
          <mxGeometry width="50" height="50" relative="1" as="geometry">
            <mxPoint x="-1290" y="670" as="sourcePoint" />
            <mxPoint x="-1240" y="620" as="targetPoint" />
          </mxGeometry>
        </mxCell>
        <mxCell id="x1gjESqDVY6kyEeMGUOX-49" value="" style="endArrow=classic;html=1;rounded=0;strokeWidth=5;strokeColor=#808080;entryX=0.5;entryY=1;entryDx=0;entryDy=0;exitX=0.5;exitY=0;exitDx=0;exitDy=0;" parent="1" source="x1gjESqDVY6kyEeMGUOX-9" target="x1gjESqDVY6kyEeMGUOX-11" edge="1">
          <mxGeometry width="50" height="50" relative="1" as="geometry">
            <mxPoint x="-1730" y="930" as="sourcePoint" />
            <mxPoint x="-1650" y="780" as="targetPoint" />
          </mxGeometry>
        </mxCell>
        <mxCell id="x1gjESqDVY6kyEeMGUOX-50" value="" style="endArrow=classic;html=1;rounded=0;strokeWidth=5;strokeColor=#808080;exitX=0.5;exitY=0;exitDx=0;exitDy=0;entryX=0.5;entryY=1;entryDx=0;entryDy=0;" parent="1" source="x1gjESqDVY6kyEeMGUOX-9" target="x1gjESqDVY6kyEeMGUOX-12" edge="1">
          <mxGeometry width="50" height="50" relative="1" as="geometry">
            <mxPoint x="-1360" y="520" as="sourcePoint" />
            <mxPoint x="-1310" y="470" as="targetPoint" />
          </mxGeometry>
        </mxCell>
        <mxCell id="x1gjESqDVY6kyEeMGUOX-51" value="" style="endArrow=classic;html=1;rounded=0;strokeWidth=5;strokeColor=#808080;exitX=0.5;exitY=0;exitDx=0;exitDy=0;entryX=0.5;entryY=1;entryDx=0;entryDy=0;" parent="1" source="x1gjESqDVY6kyEeMGUOX-6" target="x1gjESqDVY6kyEeMGUOX-7" edge="1">
          <mxGeometry width="50" height="50" relative="1" as="geometry">
            <mxPoint x="-2040" y="930" as="sourcePoint" />
            <mxPoint x="-1990" y="880" as="targetPoint" />
          </mxGeometry>
        </mxCell>
        <mxCell id="x1gjESqDVY6kyEeMGUOX-52" value="" style="endArrow=classic;html=1;rounded=0;strokeWidth=5;strokeColor=#808080;exitX=0.5;exitY=0;exitDx=0;exitDy=0;entryX=0.5;entryY=1;entryDx=0;entryDy=0;" parent="1" source="x1gjESqDVY6kyEeMGUOX-6" target="x1gjESqDVY6kyEeMGUOX-8" edge="1">
          <mxGeometry width="50" height="50" relative="1" as="geometry">
            <mxPoint x="-2000" y="930" as="sourcePoint" />
            <mxPoint x="-1950" y="880" as="targetPoint" />
          </mxGeometry>
        </mxCell>
        <mxCell id="x1gjESqDVY6kyEeMGUOX-53" value="" style="endArrow=classic;html=1;rounded=0;strokeWidth=5;strokeColor=#808080;exitX=0.5;exitY=0;exitDx=0;exitDy=0;entryX=0.5;entryY=1;entryDx=0;entryDy=0;" parent="1" source="x1gjESqDVY6kyEeMGUOX-2" target="x1gjESqDVY6kyEeMGUOX-4" edge="1">
          <mxGeometry width="50" height="50" relative="1" as="geometry">
            <mxPoint x="-2390" y="880" as="sourcePoint" />
            <mxPoint x="-2340" y="830" as="targetPoint" />
          </mxGeometry>
        </mxCell>
        <mxCell id="x1gjESqDVY6kyEeMGUOX-56" value="" style="endArrow=classic;html=1;rounded=0;strokeWidth=5;strokeColor=#808080;exitX=0.75;exitY=0;exitDx=0;exitDy=0;entryX=0.5;entryY=1;entryDx=0;entryDy=0;" parent="1" source="x1gjESqDVY6kyEeMGUOX-23" target="x1gjESqDVY6kyEeMGUOX-74" edge="1">
          <mxGeometry width="50" height="50" relative="1" as="geometry">
            <mxPoint x="-640" y="-30" as="sourcePoint" />
            <mxPoint x="-640" y="-250" as="targetPoint" />
          </mxGeometry>
        </mxCell>
        <mxCell id="x1gjESqDVY6kyEeMGUOX-69" value="" style="endArrow=classic;html=1;rounded=0;strokeWidth=5;strokeColor=#0000f0;exitX=0.5;exitY=1;exitDx=0;exitDy=0;entryX=0.5;entryY=0;entryDx=0;entryDy=0;" parent="1" edge="1">
          <mxGeometry width="50" height="50" relative="1" as="geometry">
            <mxPoint x="-1470" y="920" as="sourcePoint" />
            <mxPoint x="-1470" y="800" as="targetPoint" />
          </mxGeometry>
        </mxCell>
        <mxCell id="x1gjESqDVY6kyEeMGUOX-70" value="" style="endArrow=classic;html=1;rounded=0;strokeWidth=5;strokeColor=#0000f0;exitX=0.5;exitY=1;exitDx=0;exitDy=0;entryX=0.5;entryY=0;entryDx=0;entryDy=0;" parent="1" edge="1">
          <mxGeometry width="50" height="50" relative="1" as="geometry">
            <mxPoint x="-2070" y="920" as="sourcePoint" />
            <mxPoint x="-2070" y="800" as="targetPoint" />
          </mxGeometry>
        </mxCell>
        <mxCell id="x1gjESqDVY6kyEeMGUOX-71" value="" style="endArrow=classic;html=1;rounded=0;strokeWidth=5;strokeColor=#0000f0;exitX=0.5;exitY=1;exitDx=0;exitDy=0;entryX=0.5;entryY=0;entryDx=0;entryDy=0;" parent="1" edge="1">
          <mxGeometry width="50" height="50" relative="1" as="geometry">
            <mxPoint x="-2370" y="920" as="sourcePoint" />
            <mxPoint x="-2370" y="800" as="targetPoint" />
          </mxGeometry>
        </mxCell>
        <mxCell id="x1gjESqDVY6kyEeMGUOX-60" value="" style="endArrow=classic;html=1;rounded=0;strokeWidth=5;strokeColor=#0000f0;exitX=0.5;exitY=1;exitDx=0;exitDy=0;entryX=0.5;entryY=0;entryDx=0;entryDy=0;" parent="1" edge="1">
          <mxGeometry width="50" height="50" relative="1" as="geometry">
            <mxPoint x="-1770" y="920" as="sourcePoint" />
            <mxPoint x="-1770" y="800" as="targetPoint" />
          </mxGeometry>
        </mxCell>
        <mxCell id="x1gjESqDVY6kyEeMGUOX-74" value="&lt;font style=&quot;font-size: 24px;&quot;&gt;nvmeof target&lt;br&gt;&lt;/font&gt;" style="rounded=0;whiteSpace=wrap;html=1;" parent="1" vertex="1">
          <mxGeometry x="-1920" y="-100" width="240" height="60" as="geometry" />
        </mxCell>
        <mxCell id="x1gjESqDVY6kyEeMGUOX-76" value="" style="endArrow=classic;html=1;rounded=0;strokeWidth=5;strokeColor=#808080;exitX=0.25;exitY=0;exitDx=0;exitDy=0;entryX=0.5;entryY=0;entryDx=0;entryDy=0;" parent="1" source="x1gjESqDVY6kyEeMGUOX-23" edge="1">
          <mxGeometry width="50" height="50" relative="1" as="geometry">
            <mxPoint x="-2041" y="-80" as="sourcePoint" />
            <mxPoint x="-2040" y="-220" as="targetPoint" />
          </mxGeometry>
        </mxCell>
        <mxCell id="x1gjESqDVY6kyEeMGUOX-82" value="" style="endArrow=classic;html=1;rounded=0;strokeWidth=5;strokeColor=#f000f0;exitX=0.5;exitY=0;exitDx=0;exitDy=0;entryX=0.5;entryY=0;entryDx=0;entryDy=0;" parent="1" source="x1gjESqDVY6kyEeMGUOX-74" edge="1">
          <mxGeometry width="50" height="50" relative="1" as="geometry">
            <mxPoint x="-1585" y="-240" as="sourcePoint" />
            <mxPoint x="-1800" y="-220" as="targetPoint" />
          </mxGeometry>
        </mxCell>
      </root>
    </mxGraphModel>
  </diagram>
</mxfile>
